<svg xmlns="http://www.w3.org/2000/svg" viewBox="0 0 1200 630" width="1200" height="630">
  <defs>
    <linearGradient id="arc" x1="0" y1="0" x2="1" y2="1">
      <stop offset="0" stop-color="#46e8ff"/>
      <stop offset=".55" stop-color="#b768ff"/>
      <stop offset="1" stop-color="#ff4fa3"/>
    </linearGradient>
    <radialGradient id="s1" cx="20%" cy="18%" r="60%">
      <stop offset="0" stop-color="#46e8ff" stop-opacity=".42"/>
      <stop offset="1" stop-color="#46e8ff" stop-opacity="0"/>
    </radialGradient>
    <radialGradient id="s2" cx="86%" cy="14%" r="55%">
      <stop offset="0" stop-color="#b768ff" stop-opacity=".45"/>
      <stop offset="1" stop-color="#b768ff" stop-opacity="0"/>
    </radialGradient>
    <radialGradient id="s3" cx="68%" cy="100%" r="60%">
      <stop offset="0" stop-color="#ff4fa3" stop-opacity=".3"/>
      <stop offset="1" stop-color="#ff4fa3" stop-opacity="0"/>
    </radialGradient>
  </defs>

  <rect width="1200" height="630" fill="#07060d"/>
  <rect width="1200" height="630" fill="url(#s1)"/>
  <rect width="1200" height="630" fill="url(#s2)"/>
  <rect width="1200" height="630" fill="url(#s3)"/>

  <g transform="translate(96 232)">
    <rect width="118" height="118" rx="30" fill="url(#arc)"/>
    <rect x="6" y="6" width="106" height="106" rx="24" fill="#0b0915"/>
    <path d="M59 22l9.6 26.4L96 53l-24 17 2.8 26.6L59 84 33.2 96.6 36 70 12 53l26.4-1.8z"
          fill="none" stroke="url(#arc)" stroke-width="4.6" stroke-linejoin="round"/>
  </g>

  <text x="248" y="300" font-family="Cinzel Decorative, Georgia, serif" font-weight="900"
        font-size="104" fill="url(#arc)" letter-spacing="2">Aetherwright</text>
  <text x="252" y="360" font-family="Cinzel, Georgia, serif" font-weight="600"
        font-size="30" fill="#a39ec6" letter-spacing="10">ARKANES KAMPAGNEN-DECK</text>

  <text x="98" y="470" font-family="Manrope, system-ui, sans-serif" font-weight="300"
        font-size="30" fill="#a39ec6">Charaktere · Szenen · Items · Erinnerungen — für FoundryVTT</text>
  <text x="98" y="520" font-family="JetBrains Mono, monospace" font-weight="500"
        font-size="22" fill="#46e8ff" letter-spacing="3">FOUNDRY · DALL·E · OBSIDIAN — VEREINT</text>

  <rect x="0" y="624" width="1200" height="6" fill="url(#arc)"/>
</svg>
